REM DIRINDEX 1\8,1\2\11,1\3\12,1\3\14,1\5\15,1\5\16,1\6\17,1\6\18,1\4\19,1\4\20,1\4\21,1\4\22,1\7\23,1\7\24,1\7\25,1\2\9\26,1\2\9\27,1\2\10\28,1\2\10\29,1\2\10\30,1\2\10\31,1\2\10\32,1\3\13\33,1\3\13\34,1\3\13\35
REM DIRNAME cjc123,folder01,folder02,folder03,folder04,folder05,folder06,folder07,folder08,folder09,folder10,folder11,folder12,folder13,folder14,folder15,folder16,folder17,folder18,folder19,folder20,folder21,folder22,folder23,folder24,folder25,folder26,folder27,folder28,folder29,folder30,folder31,folder32,folder33,folder34
TITLE ""
FILE "70 070_UNIT7_SET4.mp3" MP3
  TRACK 01 AUDIO
    TITLE "11:cjc123_6874"
    INDEX 01 00:00:00
  TRACK 02 AUDIO
    TITLE "0:"
    INDEX 01 00:02:38
  TRACK 03 AUDIO
    TITLE "28:cjc123_6875"
    INDEX 01 00:03:15
  TRACK 04 AUDIO
    TITLE "0:"
    INDEX 01 00:04:09
  TRACK 05 AUDIO
    TITLE "29:cjc123_6876"
    INDEX 01 00:04:21
  TRACK 06 AUDIO
    TITLE "0:"
    INDEX 01 00:06:06
  TRACK 07 AUDIO
    TITLE "30:cjc123_6877"
    INDEX 01 00:06:14
  TRACK 08 AUDIO
    TITLE "0:"
    INDEX 01 00:07:09
  TRACK 09 AUDIO
    TITLE "31:cjc123_6878"
    INDEX 01 00:07:58
  TRACK 10 AUDIO
    TITLE "0:"
    INDEX 01 00:13:12
  TRACK 11 AUDIO
    TITLE "32:cjc123_6879"
    INDEX 01 00:13:47
  TRACK 12 AUDIO
    TITLE "0:"
    INDEX 01 00:18:72
  TRACK 13 AUDIO
    TITLE "28:cjc123_6880"
    INDEX 01 00:19:42
  TRACK 14 AUDIO
    TITLE "0:"
    INDEX 01 00:20:53
  TRACK 15 AUDIO
    TITLE "29:cjc123_6881"
    INDEX 01 00:20:65
  TRACK 16 AUDIO
    TITLE "0:"
    INDEX 01 00:22:15
  TRACK 17 AUDIO
    TITLE "30:cjc123_6882"
    INDEX 01 00:22:25
  TRACK 18 AUDIO
    TITLE "0:"
    INDEX 01 00:23:42
  TRACK 19 AUDIO
    TITLE "31:cjc123_6883"
    INDEX 01 00:24:16
  TRACK 20 AUDIO
    TITLE "0:"
    INDEX 01 00:28:35
  TRACK 21 AUDIO
    TITLE "32:cjc123_6884"
    INDEX 01 00:28:66
  TRACK 22 AUDIO
    TITLE "0:"
    INDEX 01 00:33:42
  TRACK 23 AUDIO
    TITLE "28:cjc123_6885"
    INDEX 01 00:33:68
  TRACK 24 AUDIO
    TITLE "0:"
    INDEX 01 00:35:21
  TRACK 25 AUDIO
    TITLE "29:cjc123_6886"
    INDEX 01 00:35:35
  TRACK 26 AUDIO
    TITLE "0:"
    INDEX 01 00:36:44
  TRACK 27 AUDIO
    TITLE "30:cjc123_6887"
    INDEX 01 00:36:50
  TRACK 28 AUDIO
    TITLE "0:"
    INDEX 01 00:38:02
  TRACK 29 AUDIO
    TITLE "31:cjc123_6888"
    INDEX 01 00:38:53
  TRACK 30 AUDIO
    TITLE "0:"
    INDEX 01 00:42:72
  TRACK 31 AUDIO
    TITLE "32:cjc123_6889"
    INDEX 01 00:43:33
  TRACK 32 AUDIO
    TITLE "0:"
    INDEX 01 00:47:42
  TRACK 33 AUDIO
    TITLE "28:cjc123_6890"
    INDEX 01 00:48:14
  TRACK 34 AUDIO
    TITLE "0:"
    INDEX 01 00:49:23
  TRACK 35 AUDIO
    TITLE "29:cjc123_6891"
    INDEX 01 00:49:31
  TRACK 36 AUDIO
    TITLE "0:"
    INDEX 01 00:50:42
  TRACK 37 AUDIO
    TITLE "30:cjc123_6892"
    INDEX 01 00:50:46
  TRACK 38 AUDIO
    TITLE "0:"
    INDEX 01 00:51:42
  TRACK 39 AUDIO
    TITLE "31:cjc123_6893"
    INDEX 01 00:52:26
  TRACK 40 AUDIO
    TITLE "0:"
    INDEX 01 00:57:48
  TRACK 41 AUDIO
    TITLE "32:cjc123_6894"
    INDEX 01 00:58:11
  TRACK 42 AUDIO
    TITLE "0:"
    INDEX 01 01:03:67
  TRACK 43 AUDIO
    TITLE "28:cjc123_6895"
    INDEX 01 01:04:39
  TRACK 44 AUDIO
    TITLE "0:"
    INDEX 01 01:05:54
  TRACK 45 AUDIO
    TITLE "29:cjc123_6896"
    INDEX 01 01:05:60
  TRACK 46 AUDIO
    TITLE "0:"
    INDEX 01 01:07:27
  TRACK 47 AUDIO
    TITLE "30:cjc123_6897"
    INDEX 01 01:07:31
  TRACK 48 AUDIO
    TITLE "0:"
    INDEX 01 01:08:35
  TRACK 49 AUDIO
    TITLE "31:cjc123_6898"
    INDEX 01 01:09:07
  TRACK 50 AUDIO
    TITLE "0:"
    INDEX 01 01:14:17
  TRACK 51 AUDIO
    TITLE "32:cjc123_6899"
    INDEX 01 01:14:49
  TRACK 52 AUDIO
    TITLE "0:"
    INDEX 01 01:19:15
  TRACK 53 AUDIO
    TITLE "28:cjc123_6900"
    INDEX 01 01:19:62
  TRACK 54 AUDIO
    TITLE "0:"
    INDEX 01 01:20:59
  TRACK 55 AUDIO
    TITLE "29:cjc123_6901"
    INDEX 01 01:20:69
  TRACK 56 AUDIO
    TITLE "0:"
    INDEX 01 01:21:70
  TRACK 57 AUDIO
    TITLE "30:cjc123_6902"
    INDEX 01 01:22:01
  TRACK 58 AUDIO
    TITLE "0:"
    INDEX 01 01:22:74
  TRACK 59 AUDIO
    TITLE "31:cjc123_6903"
    INDEX 01 01:23:48
  TRACK 60 AUDIO
    TITLE "0:"
    INDEX 01 01:27:51
  TRACK 61 AUDIO
    TITLE "32:cjc123_6904"
    INDEX 01 01:28:08
  TRACK 62 AUDIO
    TITLE "0:"
    INDEX 01 01:31:02
  TRACK 63 AUDIO
    TITLE "28:cjc123_6905"
    INDEX 01 01:31:51
  TRACK 64 AUDIO
    TITLE "0:"
    INDEX 01 01:32:64
  TRACK 65 AUDIO
    TITLE "29:cjc123_6906"
    INDEX 01 01:33:05
  TRACK 66 AUDIO
    TITLE "0:"
    INDEX 01 01:34:30
  TRACK 67 AUDIO
    TITLE "30:cjc123_6907"
    INDEX 01 01:34:34
  TRACK 68 AUDIO
    TITLE "0:"
    INDEX 01 01:35:47
  TRACK 69 AUDIO
    TITLE "31:cjc123_6908"
    INDEX 01 01:36:45
  TRACK 70 AUDIO
    TITLE "0:"
    INDEX 01 01:40:54
  TRACK 71 AUDIO
    TITLE "32:cjc123_6909"
    INDEX 01 01:41:10
  TRACK 72 AUDIO
    TITLE "0:"
    INDEX 01 01:45:10
  TRACK 73 AUDIO
    TITLE "28:cjc123_6910"
    INDEX 01 01:45:38
  TRACK 74 AUDIO
    TITLE "0:"
    INDEX 01 01:46:41
  TRACK 75 AUDIO
    TITLE "29:cjc123_6911"
    INDEX 01 01:46:57
  TRACK 76 AUDIO
    TITLE "0:"
    INDEX 01 01:48:11
  TRACK 77 AUDIO
    TITLE "30:cjc123_6912"
    INDEX 01 01:48:16
  TRACK 78 AUDIO
    TITLE "0:"
    INDEX 01 01:49:32
  TRACK 79 AUDIO
    TITLE "31:cjc123_6913"
    INDEX 01 01:50:15
  TRACK 80 AUDIO
    TITLE "0:"
    INDEX 01 01:57:02
  TRACK 81 AUDIO
    TITLE "32:cjc123_6914"
    INDEX 01 01:57:35
  TRACK 82 AUDIO
    TITLE "0:"
    INDEX 01 02:04:51
  TRACK 83 AUDIO
    TITLE "28:cjc123_6915"
    INDEX 01 02:04:64
  TRACK 84 AUDIO
    TITLE "0:"
    INDEX 01 02:06:12
  TRACK 85 AUDIO
    TITLE "29:cjc123_6916"
    INDEX 01 02:06:28
  TRACK 86 AUDIO
    TITLE "0:"
    INDEX 01 02:07:51
  TRACK 87 AUDIO
    TITLE "30:cjc123_6917"
    INDEX 01 02:07:59
  TRACK 88 AUDIO
    TITLE "0:"
    INDEX 01 02:08:74
  TRACK 89 AUDIO
    TITLE "31:cjc123_6918"
    INDEX 01 02:09:50
  TRACK 90 AUDIO
    TITLE "0:"
    INDEX 01 02:13:36
  TRACK 91 AUDIO
    TITLE "32:cjc123_6919"
    INDEX 01 02:14:10
  TRACK 92 AUDIO
    TITLE "0:"
    INDEX 01 02:18:31
  TRACK 93 AUDIO
    TITLE "28:cjc123_6920"
    INDEX 01 02:18:55
  TRACK 94 AUDIO
    TITLE "0:"
    INDEX 01 02:19:72
  TRACK 95 AUDIO
    TITLE "29:cjc123_6921"
    INDEX 01 02:20:11
  TRACK 96 AUDIO
    TITLE "0:"
    INDEX 01 02:21:30
  TRACK 97 AUDIO
    TITLE "30:cjc123_6922"
    INDEX 01 02:21:35
  TRACK 98 AUDIO
    TITLE "0:"
    INDEX 01 02:22:47
  TRACK 99 AUDIO
    TITLE "31:cjc123_6923"
    INDEX 01 02:23:25
  TRACK 100 AUDIO
    TITLE "0:"
    INDEX 01 02:26:66
  TRACK 101 AUDIO
    TITLE "32:cjc123_6924"
    INDEX 01 02:27:26
  TRACK 102 AUDIO
    TITLE "0:"
    INDEX 01 02:31:16
  TRACK 103 AUDIO
    TITLE "28:cjc123_6925"
    INDEX 01 02:31:55
  TRACK 104 AUDIO
    TITLE "0:"
    INDEX 01 02:32:71
  TRACK 105 AUDIO
    TITLE "29:cjc123_6926"
    INDEX 01 02:33:17
  TRACK 106 AUDIO
    TITLE "0:"
    INDEX 01 02:34:44
  TRACK 107 AUDIO
    TITLE "30:cjc123_6927"
    INDEX 01 02:34:56
  TRACK 108 AUDIO
    TITLE "0:"
    INDEX 01 02:35:69
  TRACK 109 AUDIO
    TITLE "31:cjc123_6928"
    INDEX 01 02:36:45
  TRACK 110 AUDIO
    TITLE "0:"
    INDEX 01 02:42:32
  TRACK 111 AUDIO
    TITLE "32:cjc123_6929"
    INDEX 01 02:43:06
  TRACK 112 AUDIO
    TITLE "0:"
    INDEX 01 02:47:68
  TRACK 113 AUDIO
    TITLE "28:cjc123_6930"
    INDEX 01 02:48:24
  TRACK 114 AUDIO
    TITLE "0:"
    INDEX 01 02:49:57
  TRACK 115 AUDIO
    TITLE "29:cjc123_6931"
    INDEX 01 02:49:69
  TRACK 116 AUDIO
    TITLE "0:"
    INDEX 01 02:51:09
  TRACK 117 AUDIO
    TITLE "30:cjc123_6932"
    INDEX 01 02:51:15
  TRACK 118 AUDIO
    TITLE "0:"
    INDEX 01 02:52:36
  TRACK 119 AUDIO
    TITLE "31:cjc123_6933"
    INDEX 01 02:53:26
  TRACK 120 AUDIO
    TITLE "0:"
    INDEX 01 02:58:15
  TRACK 121 AUDIO
    TITLE "32:cjc123_6934"
    INDEX 01 02:58:29
  TRACK 122 AUDIO
    TITLE "0:"
    INDEX 01 03:03:38
  TRACK 123 AUDIO
    TITLE "28:cjc123_6935"
    INDEX 01 03:04:08
  TRACK 124 AUDIO
    TITLE "0:"
    INDEX 01 03:05:17
  TRACK 125 AUDIO
    TITLE "29:cjc123_6936"
    INDEX 01 03:05:29
  TRACK 126 AUDIO
    TITLE "0:"
    INDEX 01 03:07:08
  TRACK 127 AUDIO
    TITLE "30:cjc123_6937"
    INDEX 01 03:07:20
  TRACK 128 AUDIO
    TITLE "0:"
    INDEX 01 03:08:27
  TRACK 129 AUDIO
    TITLE "31:cjc123_6938"
    INDEX 01 03:08:74
  TRACK 130 AUDIO
    TITLE "0:"
    INDEX 01 03:14:65
  TRACK 131 AUDIO
    TITLE "32:cjc123_6939"
    INDEX 01 03:15:23
  TRACK 132 AUDIO
    TITLE "0:"
    INDEX 01 03:20:24
  TRACK 133 AUDIO
    TITLE "28:cjc123_6940"
    INDEX 01 03:20:64
  TRACK 134 AUDIO
    TITLE "0:"
    INDEX 01 03:22:00
  TRACK 135 AUDIO
    TITLE "29:cjc123_6941"
    INDEX 01 03:22:12
  TRACK 136 AUDIO
    TITLE "0:"
    INDEX 01 03:23:48
  TRACK 137 AUDIO
    TITLE "30:cjc123_6942"
    INDEX 01 03:23:54
  TRACK 138 AUDIO
    TITLE "0:"
    INDEX 01 03:24:63
  TRACK 139 AUDIO
    TITLE "31:cjc123_6943"
    INDEX 01 03:25:59
  TRACK 140 AUDIO
    TITLE "0:"
    INDEX 01 03:30:23
  TRACK 141 AUDIO
    TITLE "32:cjc123_6944"
    INDEX 01 03:30:41
  TRACK 142 AUDIO
    TITLE "0:"
    INDEX 01 03:35:48
  TRACK 143 AUDIO
    TITLE "28:cjc123_6945"
    INDEX 01 03:36:29
  TRACK 144 AUDIO
    TITLE "0:"
    INDEX 01 03:37:29
  TRACK 145 AUDIO
    TITLE "29:cjc123_6946"
    INDEX 01 03:37:48
  TRACK 146 AUDIO
    TITLE "0:"
    INDEX 01 03:38:66
  TRACK 147 AUDIO
    TITLE "30:cjc123_6947"
    INDEX 01 03:38:69
  TRACK 148 AUDIO
    TITLE "0:"
    INDEX 01 03:40:00
  TRACK 149 AUDIO
    TITLE "31:cjc123_6948"
    INDEX 01 03:40:55
  TRACK 150 AUDIO
    TITLE "0:"
    INDEX 01 03:46:08
  TRACK 151 AUDIO
    TITLE "32:cjc123_6949"
    INDEX 01 03:46:43
  TRACK 152 AUDIO
    TITLE "0:"
    INDEX 01 03:52:19
